<?xml version="1.0" encoding="UTF-8" standalone="no"?>
<!DOCTYPE svg PUBLIC "-//W3C//DTD SVG 1.1//EN" "http://www.w3.org/Graphics/SVG/1.1/DTD/svg11.dtd">
<svg version="1.1" xmlns="http://www.w3.org/2000/svg" xmlns:xlink="http://www.w3.org/1999/xlink" preserveAspectRatio="xMidYMid meet" viewBox="0 0 640 640" width="640" height="640"><defs><path d="M576.45 320C576.45 461.29 461.64 576 320.23 576C178.81 576 64 461.29 64 320C64 178.71 178.81 64 320.23 64C461.64 64 576.45 178.71 576.45 320Z" id="a3DSaqeo5B"></path><path d="M320 384L192 448L192 320L192 192L320 255.99L448 320L320 384Z" id="dzXyEhpnP"></path></defs><g><g><g><g><filter id="shadow1554375" x="43" y="43" width="556.45" height="556" filterUnits="userSpaceOnUse" primitiveUnits="userSpaceOnUse"><feFlood></feFlood><feComposite in2="SourceAlpha" operator="in"></feComposite><feGaussianBlur stdDeviation="2.24"></feGaussianBlur><feOffset dx="2" dy="2" result="afterOffset"></feOffset><feFlood flood-color="#000000" flood-opacity="0.52"></feFlood><feComposite in2="afterOffset" operator="in"></feComposite><feMorphology operator="dilate" radius="4"></feMorphology><feComposite in2="SourceAlpha" operator="out"></feComposite></filter><path d="M576.45 320C576.45 461.29 461.64 576 320.23 576C178.81 576 64 461.29 64 320C64 178.71 178.81 64 320.23 64C461.64 64 576.45 178.71 576.45 320Z" id="bhPnRelp" fill="white" fill-opacity="1" filter="url(#shadow1554375)"></path></g><use xlink:href="#a3DSaqeo5B" opacity="1" fill="#720017" fill-opacity="1"></use></g><g><g><filter id="shadow3786070" x="167" y="167" width="312" height="308" filterUnits="userSpaceOnUse" primitiveUnits="userSpaceOnUse"><feFlood></feFlood><feComposite in2="SourceAlpha" operator="in"></feComposite><feGaussianBlur stdDeviation="2.45"></feGaussianBlur><feOffset dx="6" dy="2" result="afterOffset"></feOffset><feFlood flood-color="#000000" flood-opacity="0.5"></feFlood><feComposite in2="afterOffset" operator="in"></feComposite><feMorphology operator="dilate" radius="2"></feMorphology><feComposite in2="SourceAlpha" operator="out"></feComposite></filter><path d="M320 384L192 448L192 320L192 192L320 255.99L448 320L320 384Z" id="chFfiwi4D" fill="white" fill-opacity="1" filter="url(#shadow3786070)"></path></g><use xlink:href="#dzXyEhpnP" opacity="1" fill="#d9ac2a" fill-opacity="1"></use></g></g></g></svg>